PathFileType	4	(X/Y/Z)	US003Walk_3.trc	
DataRate	CameraRate	NumFrames	NumMarkers	Units	OrigDataRate	OrigDataStartFrame	OrigNumFrames	
100.00	100.00	10	22	mm	100.00	986	99	
Frame#	Time	LFEO			LFEP			LTIO			RFEO			RFEP			RTIO			LASI			RASI			LPSI			RPSI			LTHI			LKNE			LTIB			LANK			LHEE			LTOE			RTHI			RKNE			RTIB			RANK			RHEE			RTOE			
		X1	Y1	Z1	X2	Y2	Z2	X3	Y3	Z3	X4	Y4	Z4	X5	Y5	Z5	X6	Y6	Z6	X7	Y7	Z7	X8	Y8	Z8	X9	Y9	Z9	X10	Y10	Z10	X11	Y11	Z11	X12	Y12	Z12	X13	Y13	Z13	X14	Y14	Z14	X15	Y15	Z15	X16	Y16	Z16	X17	Y17	Z17	X18	Y18	Z18	X19	Y19	Z19	X20	Y20	Z20	X21	Y21	Z21	X22	Y22	Z22	

20	0.190	953.59784	340.28656	-459.15912	970.01184	591.58771	-457.69119	798.99194	128.78242	-505.76038	1015.44202	358.22531	-338.11887	960.53088	602.98267	-325.59616	952.26923	105.54316	-321.76328	1022.65558	633.48663	-478.94092	1008.76178	648.57550	-303.88147	904.55975	673.60699	-437.57675	899.28748	677.97632	-376.65079	965.48077	430.45294	-553.54742	956.50189	340.36496	-505.06723	889.51520	206.78163	-573.77332	809.79352	127.51749	-535.85559	774.78088	170.44257	-530.23376	781.68945	41.54721	-477.53610	996.21387	446.61020	-240.58578	1016.23590	356.02731	-291.67758	1013.20056	190.12428	-254.56361	967.42200	103.61157	-293.07690	916.96613	122.66969	-306.79425	1013.89465	35.68975	-349.17889 
21	0.200	964.09735	342.47571	-457.77768	976.40503	594.09253	-457.41986	811.66748	130.03290	-503.22910	1016.13116	358.81952	-338.62286	966.66681	604.71167	-325.27881	952.50720	105.92276	-322.44144	1029.16882	636.02094	-478.18338	1014.95380	650.06445	-303.31030	911.07916	676.01703	-437.13193	905.83691	680.17474	-376.15945	977.00586	432.07111	-552.45862	968.21082	342.33966	-503.59314	901.07941	208.53381	-571.90906	822.35596	128.81157	-533.36639	786.57617	171.08989	-527.33081	798.01019	42.36356	-474.86295	998.53033	447.24423	-240.83635	1016.70831	356.41568	-292.18863	1013.16931	190.57451	-255.09163	967.51367	103.98776	-293.67841	917.18146	123.16180	-307.58972	1013.84265	35.66228	-349.29575 
22	0.210	975.01294	344.62637	-456.60815	982.55182	596.43835	-457.32361	824.87555	131.02913	-500.59421	1016.89587	359.36517	-339.30341	972.73761	606.20422	-325.12247	952.70337	106.31100	-323.34836	1035.41003	638.40051	-477.68674	1021.10828	651.30536	-302.90427	917.39026	678.26410	-436.67346	912.28729	682.14862	-375.67606	988.08789	433.71964	-551.54004	980.03094	344.34616	-502.33270	912.76251	210.31244	-570.16980	835.32007	129.91219	-530.82092	798.79755	171.50752	-524.24585	814.91681	43.05968	-472.15503	1000.73944	447.70926	-241.26620	1017.18726	356.75009	-292.87784	1013.01312	191.00473	-255.79297	967.51868	104.37244	-294.48669	917.33453	123.67381	-308.65137	1013.78888	35.63681	-349.47693 
23	0.220	986.39032	346.70779	-455.64108	988.46820	598.56104	-457.35449	838.61823	131.76317	-497.89706	1017.77911	359.84335	-340.06909	978.71320	607.45483	-325.08746	952.89441	106.70747	-324.37070	1041.40454	640.55170	-477.40079	1027.18921	652.29974	-302.62958	923.50848	680.29504	-436.23065	918.63055	683.86511	-375.23309	998.63763	435.36853	-550.82465	991.94727	346.35126	-501.30280	924.67792	212.00772	-568.53577	848.72327	130.78183	-528.24371	811.48004	171.66772	-521.06042	832.28381	43.63854	-469.42352	1002.92828	448.04221	-241.80174	1017.75378	357.03101	-293.65414	1012.83777	191.40302	-256.57764	967.49591	104.76131	-295.40076	917.47784	124.20750	-309.84512	1013.73840	35.61097	-349.69955 
24	0.230	998.24182	348.70389	-454.86923	994.16748	600.40942	-457.46445	852.89484	132.23740	-495.18311	1018.80621	360.23819	-340.84219	984.56659	608.46594	-325.13251	953.11029	107.11113	-325.39285	1047.17554	642.41278	-477.27280	1033.16675	653.05499	-302.45334	929.44373	682.06598	-435.82809	924.85150	685.31818	-374.85681	1008.62341	436.98047	-550.33350	1003.94958	348.32568	-500.51218	936.91766	213.53702	-566.99670	862.59735	131.39935	-525.66510	824.64746	171.54520	-517.85901	850.03210	44.11061	-466.67477	1005.19275	448.28268	-242.37239	1018.48071	357.25656	-294.43896	1012.75140	191.75508	-257.36526	967.50348	105.14995	-296.31985	917.66071	124.76033	-311.03748	1013.69751	35.58267	-349.93823 
25	0.240	1010.54932	350.61731	-454.29138	999.66199	601.95068	-457.61743	867.70245	132.46051	-492.50052	1019.99261	360.53732	-341.55902	990.28247	609.24719	-325.22546	953.37451	107.51868	-326.31436	1052.74304	643.94067	-477.26312	1039.02576	653.58258	-302.35281	935.20355	683.54651	-435.48172	930.93079	686.52820	-374.55994	1018.06482	438.51544	-550.06885	1016.03149	350.25040	-499.96201	949.53992	214.85452	-565.55664	876.96466	131.75891	-523.12262	838.31354	171.12288	-514.72235	868.13757	44.49064	-463.92105	1007.62152	448.46472	-242.91466	1019.42749	357.42307	-295.16687	1012.84052	192.04652	-258.08676	967.58917	105.53289	-297.15530	917.92084	125.32525	-312.11536	1013.67310	35.55155	-350.16669 
26	0.250	1023.26276	352.46722	-453.91171	1004.96808	603.16968	-457.79346	883.03461	132.44534	-489.89856	1021.35040	360.73175	-342.16992	995.86218	609.81134	-325.34802	953.70483	107.92523	-327.06226	1058.12793	645.11371	-477.35144	1044.76868	653.89655	-302.31665	940.79779	684.71967	-435.19724	936.85156	687.52625	-374.34256	1027.02185	439.93744	-550.01465	1028.18420	352.11826	-499.64633	962.56555	215.95042	-564.23230	891.83545	131.86732	-520.65900	852.48218	170.39496	-511.71899	886.62274	44.79417	-461.19342	1010.28381	448.61169	-243.37631	1020.63757	357.52618	-295.78595	1013.15894	192.26440	-258.68808	967.78546	105.90379	-297.84067	918.27893	125.89134	-312.99939	1013.67084	35.51862	-350.36270 
27	0.260	1036.29492	354.28217	-453.73596	1010.10962	604.06335	-457.98495	898.87750	132.20752	-487.42395	1022.89429	360.81696	-342.63959	1001.32452	610.17096	-325.49203	954.11163	108.32475	-327.59750	1063.35449	645.92828	-477.53198	1050.41199	654.01349	-302.34042	946.24109	685.57996	-434.97083	942.60681	688.33490	-374.19714	1035.58948	441.22189	-550.14093	1040.39063	353.93216	-499.55188	975.98114	216.84125	-563.04700	907.20605	131.74025	-518.31750	867.14636	169.36420	-508.89838	905.53796	45.03249	-458.54965	1013.22137	448.73416	-243.72063	1022.13806	357.56207	-296.25980	1013.72693	192.39760	-259.13550	968.10681	106.25533	-298.33826	918.73737	126.44591	-313.64917	1013.69385	35.48469	-350.51193 
28	0.270	1049.52734	356.08963	-453.76456	1015.12268	604.63446	-458.18719	915.20825	131.76482	-485.11765	1024.63916	360.79257	-342.95038	1006.69952	610.33777	-325.65283	954.59619	108.71159	-327.91422	1068.45325	646.39197	-477.80188	1055.98047	653.95258	-302.42081	951.55457	686.13141	-434.79312	948.20447	688.95801	-374.11075	1043.89001	442.35956	-550.41022	1052.62354	355.70154	-499.65851	989.74567	217.55637	-562.02161	923.06018	131.39879	-516.13715	882.28540	168.03908	-506.28696	924.94513	45.20982	-456.07269	1016.44678	448.83096	-243.92963	1023.93915	357.52737	-296.57037	1014.53674	192.43790	-259.41849	968.55042	106.58041	-298.63986	919.28699	126.97993	-314.05969	1013.74249	35.44965	-350.60922 
29	0.280	1062.81970	357.90607	-453.98663	1020.04968	604.88934	-458.39212	931.99908	131.13605	-483.01291	1026.59534	360.66232	-343.10117	1012.02289	610.32501	-325.82199	955.15155	109.08317	-328.03329	1073.46106	646.51910	-478.15073	1061.50146	653.73669	-302.55124	956.76764	686.38580	-434.65503	953.67188	689.38165	-374.06805	1052.05322	443.35489	-550.78412	1064.84534	357.43716	-499.93961	1003.79901	218.12817	-561.16962	939.37335	130.86740	-514.15039	897.86340	166.43245	-503.88745	944.90533	45.32628	-453.86069	1019.94836	448.89255	-244.00351	1026.03430	357.41931	-296.71777	1015.56128	192.38161	-259.54858	969.10071	106.87493	-298.76230	919.91620	127.49286	-314.25314	1013.81506	35.41271	-350.65735 
